<?xml version="1.0" ?><!DOCTYPE svg  PUBLIC '-//W3C//DTD SVG 20010904//EN'  'http://www.w3.org/TR/2001/REC-SVG-20010904/DTD/svg10.dtd'><svg xmlns="http://www.w3.org/2000/svg" version="1.0" width="1024.000000pt" height="1024.000000pt" viewBox="0 0 1024.000000 1024.000000" preserveAspectRatio="xMidYMid meet"><circle cx="50%" cy="50%" r="60%" fill="#ffd700" stroke="none"/>
<metadata>
Created by potrace 1.16, written by Peter Selinger 2001-2019
<meta name="Producer" content="Online-Convert"/></metadata>
<g transform="translate(0.000000,1024.000000) scale(0.100000,-0.100000)" fill="#000000">
<path d="M325 9035 c-2 -16 -11 -208 -20 -425 -9 -217 -25 -588 -35 -825 -38 -841 -76 -2002 -66 -2012 2 -2 64 0 137 6 74 6 245 16 380 23 l246 12 6 215 c6 191 34 685 53 919 6 80 7 82 33 82 39 0 543 -48 547 -53 2 -2 -3 -246 -11 -543 -8 -296 -15 -562 -15 -589 l0 -51 73 -2 c39 -1 187 -10 327 -20 203 -13 411 -17 1020 -18 421 0 1172 -2 1670 -3 l905 -2 -4 89 -3 89 103 6 c57 4 221 12 364 18 143 6 261 12 262 13 3 2 15 198 39 623 l6 112 51 5 c49 5 402 17 943 33 l231 6 87 110 87 110 9 806 c5 443 11 865 14 937 l5 131 -67 65 c-66 65 -68 66 -132 72 -74 7 -1142 57 -1745 81 -71 3 -172 8 -224 11 l-94 6 6 -98 c11 -174 13 -2559 2 -2559 -6 0 -260 4 -565 9 -305 4 -558 11 -561 14 -10 11 30 1702 52 2211 5 129 6 237 2 241 -4 4 -181 19 -393 34 -212 15 -402 29 -422 32 l-37 6 -3 -320 c-2 -176 -6 -324 -10 -328 -13 -12 -1051 36 -1065 49 -2 3 2 142 11 308 8 167 13 306 11 308 -5 5 -309 32 -605 55 -113 9 -222 18 -242 21 l-38 5 0 -503 c0 -277 -3 -579 -7 -672 l-6 -168 -71 7 c-145 13 -481 58 -488 64 -7 7 25 445 77 1081 8 102 14 186 12 187 -1 1 -190 4 -420 5 l-417 4 -5 -30z m6358 -679 c137 -13 249 -26 251 -28 3 -4 -13 -911 -16 -914 -4 -3 -552 -33 -555 -30 -2 1 5 226 14 499 17 489 17 497 38 497 11 0 132 -11 268 -24z m-3350 -660 l248 -11 0 -435 c-1 -239 -4 -552 -8 -694 l-6 -259 -354 6 c-194 3 -358 9 -363 12 -6 4 -10 103 -10 251 0 226 1 244 18 244 9 0 100 -9 202 -20 102 -11 215 -23 252 -26 l67 -7 3 289 c2 159 3 290 3 291 0 0 -123 4 -272 9 l-273 7 0 184 0 185 123 -7 c67 -4 234 -12 370 -19z" stroke="white" stroke-width="4"/>
<path d="M6430 6556 c0 -27 -41 -581 -49 -666 -4 -47 -6 -87 -4 -89 4 -5 1555 -29 1919 -30 l211 -1 -5 373 c-2 204 -5 373 -6 373 0 1 -224 7 -496 13 -272 7 -713 18 -980 26 -607 19 -590 19 -590 1z" stroke="white" stroke-width="4"/>
<path d="M2220 5703 l-175 -4 -64 -106 -64 -106 6 -581 c4 -320 7 -956 7 -1413 l0 -833 122 -80 122 -80 581 0 c320 0 723 3 896 7 l315 6 41 86 c23 47 57 112 77 144 l36 59 15 761 c15 755 29 1340 41 1738 l7 205 -58 50 c-32 27 -79 67 -105 90 l-47 41 -244 6 c-320 9 -1286 15 -1509 10z m854 -654 l279 -23 -7 -320 c-3 -177 -11 -598 -17 -936 -6 -338 -12 -616 -14 -619 -4 -4 -465 35 -521 44 l-32 6 -6 182 c-3 100 -8 523 -11 940 l-6 759 28 -5 c15 -3 153 -16 307 -28z" stroke="white" stroke-width="4"/>
<path d="M7985 5559 c-361 -27 -706 -189 -962 -451 -209 -214 -367 -529 -424 -843 -58 -323 28 -751 207 -1037 81 -129 137 -189 803 -866 l495 -503 349 348 c478 476 814 827 891 930 117 156 203 347 248 551 19 83 22 130 22 332 1 212 -1 245 -22 340 -51 225 -142 440 -252 590 -78 106 -230 257 -337 333 -294 209 -642 304 -1018 276z m351 -284 c108 -19 240 -62 331 -109 214 -108 442 -335 548 -546 172 -343 178 -776 15 -1118 -180 -377 -481 -617 -880 -704 -123 -27 -354 -29 -480 -5 -165 32 -345 107 -490 202 -80 53 -240 217 -298 305 -143 217 -224 479 -225 725 -1 211 38 374 134 560 162 315 394 525 699 633 80 28 197 57 265 65 83 11 300 6 381 -8z" stroke="white" stroke-width="4"/>
<path d="M8505 4926 c-16 -7 -52 -34 -79 -59 l-48 -46 -282 5 -281 5 -24 31 c-50 63 -149 84 -226 49 -38 -17 -105 -81 -105 -100 0 -5 29 -8 64 -8 81 2 119 -21 124 -75 5 -53 -23 -72 -116 -78 l-75 -5 29 -34 c32 -39 115 -81 158 -81 43 0 113 37 142 76 l26 34 280 0 280 0 36 -31 c78 -68 176 -88 252 -49 125 64 128 273 4 346 -51 30 -119 39 -159 20z m110 -131 c62 -61 -3 -162 -85 -134 -36 13 -50 35 -50 79 0 41 39 80 80 80 19 0 40 -9 55 -25z" stroke="white" stroke-width="4"/>
<path d="M7990 4481 c-116 -22 -247 -95 -320 -178 -48 -55 -104 -165 -124 -243 l-13 -55 -89 -1 c-104 0 -147 -16 -209 -79 -59 -60 -89 -126 -93 -212 -5 -87 7 -127 55 -183 39 -45 135 -96 194 -102 32 -3 33 -2 44 52 14 69 35 110 82 156 112 112 312 113 420 2 56 -59 70 -88 97 -210 6 -27 9 -28 65 -28 67 0 73 5 90 74 34 141 147 238 276 239 157 1 272 -93 321 -261 4 -15 79 -8 130 13 51 21 110 81 135 138 33 77 32 193 -3 262 -51 99 -103 125 -264 133 l-112 5 -11 56 c-38 191 -210 373 -391 410 -74 16 -225 22 -280 12z m328 -187 c73 -36 149 -115 184 -191 49 -108 57 -103 -152 -103 l-180 0 0 166 0 167 48 -7 c26 -3 71 -18 100 -32z m-308 -131 l-5 -158 -167 -3 c-195 -3 -189 -7 -138 96 53 104 203 222 284 222 l31 0 -5 -157z" stroke="white" stroke-width="4"/>
<path d="M7645 3601 c-147 -66 -148 -277 -3 -352 125 -65 266 17 276 161 5 73 -8 109 -58 154 -63 56 -143 70 -215 37z" stroke="white" stroke-width="4"/>
<path d="M8392 3589 c-50 -25 -82 -66 -97 -128 -33 -130 53 -234 192 -233 108 1 183 74 183 180 0 148 -148 245 -278 181z" stroke="white" stroke-width="4"/>
<path d="M4270 4902 c0 -67 -6 -559 -14 -1094 -8 -535 -17 -1201 -21 -1480 l-5 -508 32 0 c44 0 626 38 704 46 l61 6 8 262 c4 143 10 311 14 371 l6 110 265 7 c146 4 431 11 634 16 l369 9 83 85 84 85 0 958 0 957 -46 84 c-25 46 -47 84 -49 84 -2 0 -196 11 -432 25 -235 14 -669 38 -963 55 -294 16 -579 33 -632 36 l-98 7 0 -121z m1147 -627 c135 -14 249 -27 252 -29 3 -2 3 -127 0 -278 -4 -150 -8 -355 -9 -456 -2 -126 -6 -185 -14 -187 -16 -5 -556 -28 -560 -24 -2 2 5 216 15 474 10 259 18 482 19 498 0 34 -15 34 297 2z" stroke="white" stroke-width="4"/>
<path d="M2210 1971 l0 -289 93 -6 c50 -3 344 -8 652 -11 308 -3 624 -8 702 -11 l142 -6 3 289 3 290 -270 7 c-148 3 -497 8 -775 12 -278 3 -515 7 -527 10 l-23 4 0 -289z" stroke="white" stroke-width="4"/>
<path d="M4696 1415 c-86 -30 -126 -97 -122 -200 5 -142 77 -215 210 -215 78 0 110 11 154 53 50 47 65 83 66 157 0 75 -23 131 -74 173 -55 46 -156 60 -234 32z m128 -95 c32 -12 66 -65 66 -103 0 -48 -36 -105 -73 -115 -70 -19 -127 29 -127 107 1 91 59 140 134 111z" stroke="white" stroke-width="4"/>
<path d="M5655 1412 c-107 -51 -156 -194 -102 -298 41 -79 105 -114 205 -114 127 0 212 91 212 225 0 55 -45 142 -90 171 -53 35 -167 43 -225 16z m157 -111 c27 -24 32 -36 34 -78 4 -86 -45 -133 -126 -120 -75 12 -91 153 -23 207 36 28 77 25 115 -9z" stroke="white" stroke-width="4"/>
<path d="M5970 1378 l0 -48 50 0 50 0 0 -162 0 -163 60 3 60 4 0 159 0 159 50 0 50 0 0 45 0 44 -160 3 -160 3 0 -47z" stroke="white" stroke-width="4"/>
<path d="M6383 1423 l-53 -4 0 -207 0 -207 55 0 55 0 0 213 c0 116 -1 211 -2 210 -2 -1 -27 -3 -55 -5z" stroke="white" stroke-width="4"/>
<path d="M3566 1318 c-21 -57 -55 -148 -77 -202 -21 -55 -38 -101 -36 -102 1 -1 28 -4 61 -5 57 -3 59 -2 72 29 13 32 14 32 84 32 69 0 71 -1 81 -29 9 -27 15 -30 64 -33 67 -4 72 -32 -56 319 l-34 93 -61 0 -60 0 -38 -102z" stroke="white" stroke-width="4"/>
<path d="M3872 1258 c4 -185 14 -219 73 -244 42 -17 154 -18 190 -2 14 6 36 28 48 47 20 33 22 51 25 199 l4 162 -59 0 -58 0 0 -146 c0 -133 -2 -147 -19 -160 -28 -20 -63 -17 -76 5 -5 11 -10 83 -10 160 l0 141 -61 0 -61 0 4 -162z" stroke="white" stroke-width="4"/>
<path d="M4250 1375 l0 -45 55 0 55 0 0 -159 0 -159 55 -4 55 -3 0 163 0 162 54 0 53 0 -1 45 -1 45 -162 0 -163 0 0 -45z" stroke="white" stroke-width="4"/>
<path d="M5050 1215 l0 -205 50 0 49 0 3 97 3 98 38 -58 c38 -57 40 -58 80 -55 39 3 44 7 69 53 l28 50 0 -92 0 -93 60 0 60 0 0 205 0 206 -66 -3 -66 -3 -48 -94 -48 -94 -17 34 c-10 19 -21 36 -25 39 -3 3 -22 31 -41 63 -33 57 -34 57 -81 57 l-48 0 0 -205z" stroke="white" stroke-width="4"/>
<path d="M6465 1403 c4 -10 11 -29 15 -43 4 -14 29 -81 54 -150 26 -69 48 -132 51 -140 15 -61 19 -64 81 -61 32 1 60 4 62 5 1 2 22 61 47 132 24 71 55 160 69 199 14 38 26 71 26 72 0 2 -27 3 -60 3 -63 0 -70 -6 -85 -70 -2 -8 -16 -50 -31 -93 l-28 -79 -17 49 c-9 26 -27 81 -39 121 l-23 72 -64 0 c-58 0 -64 -2 -58 -17z" stroke="white" stroke-width="4"/>
<path d="M6910 1213 l0 -208 135 3 135 3 0 45 0 44 -86 0 -85 0 3 38 3 37 55 5 55 5 0 43 0 42 -57 0 c-58 0 -58 0 -58 30 l0 30 85 0 85 0 0 45 0 45 -135 0 -135 0 0 -207z" stroke="white" stroke-width="4"/>
</g>
</svg>